<?xml version="1.0" encoding="utf-8"?>
<svg version="1.1" xmlns:xlink="http://www.w3.org/1999/xlink" width="25px" height="26px" xmlns="http://www.w3.org/2000/svg">
  <g transform="matrix(1 0 0 1 -1235 -2982 )">
    <path d="M 24.4107744107744 19.4343434343434  C 24.8035914702581 19.8428731762065  25 20.3389450056117  25 20.9225589225589  C 25 21.5061728395062  24.8035914702581 22.0022446689113  24.4107744107744 22.4107744107744  L 21.5488215488215 25.3872053872054  C 21.1560044893378 25.7957351290685  20.679012345679 26  20.1178451178451 26  C 19.5566778900112 26  19.0796857463524 25.7957351290685  18.6868686868687 25.3872053872054  L 12.5 18.952861952862  L 6.31313131313131 25.3872053872054  C 5.92031425364759 25.7957351290685  5.44332210998878 26  4.88215488215488 26  C 4.32098765432099 26  3.84399551066218 25.7957351290685  3.45117845117845 25.3872053872054  L 0.589225589225589 22.4107744107744  C 0.196408529741863 22.0022446689113  0 21.5061728395062  0 20.9225589225589  C 0 20.3389450056117  0.196408529741863 19.8428731762065  0.589225589225589 19.4343434343434  L 6.77609427609428 13  L 0.589225589225589 6.56565656565656  C 0.196408529741863 6.15712682379349  0 5.66105499438833  0 5.07744107744108  C 0 4.49382716049383  0.196408529741863 3.99775533108866  0.589225589225589 3.58922558922559  L 3.45117845117845 0.612794612794613  C 3.84399551066218 0.204264870931537  4.32098765432099 0  4.88215488215488 0  C 5.44332210998878 0  5.92031425364759 0.204264870931537  6.31313131313131 0.612794612794613  L 12.5 7.04713804713805  L 18.6868686868687 0.612794612794613  C 19.0796857463524 0.204264870931537  19.5566778900112 0  20.1178451178451 0  C 20.679012345679 0  21.1560044893378 0.204264870931537  21.5488215488215 0.612794612794613  L 24.4107744107744 3.58922558922559  C 24.8035914702581 3.99775533108866  25 4.49382716049383  25 5.07744107744108  C 25 5.66105499438833  24.8035914702581 6.15712682379349  24.4107744107744 6.56565656565656  L 18.2239057239057 13  L 24.4107744107744 19.4343434343434  Z " fill-rule="nonzero" fill="#000000" stroke="none" transform="matrix(1 0 0 1 1235 2982 )" />
  </g>
</svg>