<?xml version="1.0" encoding="utf-8"?>
<svg version="1.1" xmlns:xlink="http://www.w3.org/1999/xlink" width="104px" height="104px" xmlns="http://www.w3.org/2000/svg">
  <g transform="matrix(1 0 0 1 -345 -3084 )">
    <path d="M 346 3088  A 3 3 0 0 1 349 3085 L 445 3085  A 3 3 0 0 1 448 3088 L 448 3184  A 3 3 0 0 1 445 3187 L 349 3187  A 3 3 0 0 1 346 3184 L 346 3088  Z " fill-rule="nonzero" fill="#ffffff" stroke="none" />
    <path d="M 345.5 3088  A 3.5 3.5 0 0 1 349 3084.5 L 445 3084.5  A 3.5 3.5 0 0 1 448.5 3088 L 448.5 3184  A 3.5 3.5 0 0 1 445 3187.5 L 349 3187.5  A 3.5 3.5 0 0 1 345.5 3184 L 345.5 3088  Z " stroke-width="1" stroke-dasharray="9,4" stroke="#d9d9d9" fill="none" stroke-dashoffset="0.5" />
  </g>
</svg>