<?xml version="1.0" encoding="utf-8"?>
<svg version="1.1" xmlns:xlink="http://www.w3.org/1999/xlink" width="104px" height="104px" xmlns="http://www.w3.org/2000/svg">
  <g transform="matrix(1 0 0 1 -225 -3084 )">
    <path d="M 226 3088  A 3 3 0 0 1 229 3085 L 325 3085  A 3 3 0 0 1 328 3088 L 328 3184  A 3 3 0 0 1 325 3187 L 229 3187  A 3 3 0 0 1 226 3184 L 226 3088  Z " fill-rule="nonzero" fill="#000000" stroke="none" fill-opacity="0.0196078431372549" />
    <path d="M 225.5 3088  A 3.5 3.5 0 0 1 229 3084.5 L 325 3084.5  A 3.5 3.5 0 0 1 328.5 3088 L 328.5 3184  A 3.5 3.5 0 0 1 325 3187.5 L 229 3187.5  A 3.5 3.5 0 0 1 225.5 3184 L 225.5 3088  Z " stroke-width="1" stroke-dasharray="9,4" stroke="#d9d9d9" fill="none" stroke-dashoffset="0.5" />
  </g>
</svg>