<?xml version="1.0" encoding="utf-8"?>
<svg version="1.1" xmlns:xlink="http://www.w3.org/1999/xlink" width="41px" height="42px" xmlns="http://www.w3.org/2000/svg">
  <g transform="matrix(1 0 0 1 -1362 -3945 )">
    <path d="M 40.03367003367 31.3939393939394  C 40.6778900112233 32.053872053872  41 32.8552188552189  41 33.7979797979798  C 41 34.7407407407407  40.6778900112233 35.5420875420875  40.03367003367 36.2020202020202  L 35.3400673400673 41.010101010101  C 34.695847362514 41.6700336700337  33.9135802469136 42  32.993265993266 42  C 32.0729517396184 42  31.290684624018 41.6700336700337  30.6464646464646 41.010101010101  L 20.5 30.6161616161616  L 10.3535353535354 41.010101010101  C 9.70931537598204 41.6700336700337  8.92704826038159 42  8.00673400673401 42  C 7.08641975308642 42  6.30415263748597 41.6700336700337  5.65993265993266 41.010101010101  L 0.966329966329966 36.2020202020202  C 0.322109988776656 35.5420875420875  0 34.7407407407407  0 33.7979797979798  C 0 32.8552188552189  0.322109988776656 32.053872053872  0.966329966329966 31.3939393939394  L 11.1127946127946 21  L 0.966329966329966 10.6060606060606  C 0.322109988776656 9.94612794612794  0 9.14478114478115  0 8.2020202020202  C 0 7.25925925925926  0.322109988776656 6.45791245791245  0.966329966329966 5.7979797979798  L 5.65993265993266 0.98989898989899  C 6.30415263748597 0.329966329966328  7.08641975308642 0  8.00673400673401 0  C 8.92704826038159 0  9.70931537598204 0.329966329966328  10.3535353535354 0.98989898989899  L 20.5 11.3838383838384  L 30.6464646464646 0.98989898989899  C 31.290684624018 0.329966329966328  32.0729517396184 0  32.993265993266 0  C 33.9135802469136 0  34.695847362514 0.329966329966328  35.3400673400673 0.98989898989899  L 40.03367003367 5.7979797979798  C 40.6778900112233 6.45791245791245  41 7.25925925925926  41 8.2020202020202  C 41 9.14478114478115  40.6778900112233 9.94612794612794  40.03367003367 10.6060606060606  L 29.8872053872054 21  L 40.03367003367 31.3939393939394  Z " fill-rule="nonzero" fill="#000000" stroke="none" transform="matrix(1 0 0 1 1362 3945 )" />
  </g>
</svg>