<?xml version="1.0" encoding="utf-8"?>
<svg version="1.1" xmlns:xlink="http://www.w3.org/1999/xlink" width="12px" height="12px" xmlns="http://www.w3.org/2000/svg">
  <g transform="matrix(1 0 0 1 -870 -377 )">
    <path d="M 11.5200055125 5.75211327750125  C 11.515699179569 2.57404676161778  8.93815690220782 0  5.76008746874999 0  C 2.57897784324763 0  0.000174690299132862 2.57880315294794  0.000174690299132862 5.75991805499882  C 0.000174690299132862 8.9410329570497  2.57897784324763 11.5198361099976  5.76009274529915 11.5198361099976  C 8.94120764735067 11.5198361099976  11.5200108002992 8.9410329570497  11.5200108002992 5.75991805499882  C 11.5200108002992 5.75731646160375  11.520009037699 5.75471486850796  11.5200055125 5.75211327750125  Z M 6.50934509625 5.78333235375122  L 8.22639383999999 7.47696678750088  C 8.34099294165893 7.57914668396637  8.40652874813065 7.72538368579806  8.40652874813065 7.87892092995311  C 8.40652874813065 8.17634224395403  8.16542113463163 8.41744985745301  7.86799982063067 8.41744985745301  C 7.72406121592894 8.41744985745301  7.58611290571451 8.35982788028417  7.48494097874996 8.2574434912507  L 5.76008746874999 6.50137091625106  L 4.03523395875001 8.21841966000071  C 3.93173631286493 8.32191730588575  3.7913633813593 8.38006167790542  3.644995606875 8.38006167790542  C 3.34020049491465 8.38006167790542  3.09311523709528 8.13297642008608  3.09311523709528 7.82818130812578  C 3.09311523709528 7.68181353364152  3.1512596091149 7.54144060213594  3.25475725499999 7.43794295625089  L 4.97180599874997 5.71308944625126  L 3.25475725499999 3.99604070250162  C 3.15125961158137 3.89254305759115  3.09311524107272 3.75217012830285  3.09311524107272 3.60580235625172  C 3.09311524107272 3.30100724648814  3.34020049711134 3.05392199044957  3.644995606875 3.05392199044957  C 3.79136338168271 3.05392199044957  3.93173631338223 3.11206636314215  4.03523395875001 3.21556401000177  L 5.76008746874999 5.0106604162514  L 7.48494097874996 3.28580690625176  C 7.58359698447848 3.19784233842269  7.71115794769202 3.14923212120414  7.84333499811936 3.14923212120414  C 8.14075631212032 3.14923212120414  8.38186392561934 3.39033973470312  8.38186392561934 3.68776104870403  C 8.38186392561934 3.82947660611929  8.32600322592023 3.96548048777754  8.22639383999999 4.06628361000162  L 6.50934509625 5.78333235375122  Z " fill-rule="nonzero" fill="#cdcdcd" stroke="none" transform="matrix(1 0 0 1 870 377 )" />
  </g>
</svg>