<?xml version="1.0" encoding="utf-8"?>
<svg version="1.1" xmlns:xlink="http://www.w3.org/1999/xlink" width="9px" height="9px" xmlns="http://www.w3.org/2000/svg">
  <g transform="matrix(1 0 0 1 -643 -377 )">
    <path d="M 7.38056640625001 3.72390136718748  C 7.38056640625001 4.63238525390625  7.04990234375001 5.46446533203124  6.50223388671876 6.1051025390625  C 6.50223388671876 6.1051025390625  8.46719970703124 8.07271728515626  8.83648681640625 8.43436279296876  C 9.13995361328124 8.73129882812502  8.79189453124998 9.19246826171874  8.39975585937501 8.77535400390624  C 8.16372070312501 8.52408447265626  6.10412597656251 6.5037353515625  6.10412597656251 6.5037353515625  C 5.46236572265626 7.05626220703127  4.62755126953127 7.39019775390624  3.71439208984377 7.39019775390624  C 1.68959960937498 7.39019775390624  0.0482299804687329 5.74832763671873  0.0482299804687329 3.72388916015623  C 0.0482299804687329 1.69943847656249  1.68959960937498 0.0578735351562472  3.71439208984377 0.0578735351562472  C 5.73919677734376 0.0578735351562472  7.38056640625001 1.69945068359374  7.38056640625001 3.72388916015623  Z M 6.79970703125002 3.7236328125  C 6.79970703125002 2.02032470703126  5.41829833984374 0.638977050781264  3.71437988281248 0.638977050781264  C 2.01101074218751 0.638977050781264  0.62960205078123 2.02032470703126  0.62960205078123 3.7236328125  C 0.62960205078123 5.42749023437499  2.01101074218751 6.80883789062499  3.71437988281248 6.80883789062499  C 5.4182861328125 6.80883789062499  6.79970703125002 5.42747802734374  6.79970703125002 3.7236328125  Z " fill-rule="nonzero" fill="#000000" stroke="none" transform="matrix(1 0 0 1 643 377 )" />
  </g>
</svg>