<?xml version="1.0" encoding="utf-8"?>
<svg version="1.1" xmlns:xlink="http://www.w3.org/1999/xlink" width="34px" height="22px" xmlns="http://www.w3.org/2000/svg">
  <g transform="matrix(1 0 0 1 -859 -723 )">
    <path d="M 0.8466796875 15.27109375  C 0.2822265625 13.91328125  0 12.4895833333333  0 11  C 0 9.51041666666667  0.2822265625 8.08671875  0.8466796875 6.72890625  C 1.4111328125 5.37109375  2.16650390625 4.20234375  3.11279296875 3.22265625  C 4.05908203125 2.24296875  5.18798828125 1.4609375  6.49951171875 0.876562499999999  C 7.81103515625 0.2921875  9.18619791666667 0  10.625 0  L 23.375 0  C 24.8138020833333 0  26.18896484375 0.2921875  27.50048828125 0.876562499999999  C 28.81201171875 1.4609375  29.94091796875 2.24296875  30.88720703125 3.22265625  C 31.83349609375 4.20234375  32.5888671875 5.37109375  33.1533203125 6.72890625  C 33.7177734375 8.08671875  34 9.51041666666667  34 11  C 34 12.4895833333333  33.7177734375 13.91328125  33.1533203125 15.27109375  C 32.5888671875 16.62890625  31.83349609375 17.79765625  30.88720703125 18.77734375  C 29.94091796875 19.75703125  28.81201171875 20.5390625  27.50048828125 21.1234375  C 26.18896484375 21.7078125  24.8138020833333 22  23.375 22  L 10.625 22  C 9.18619791666667 22  7.81103515625 21.7078125  6.49951171875 21.1234375  C 5.18798828125 20.5390625  4.05908203125 19.75703125  3.11279296875 18.77734375  C 2.16650390625 17.79765625  1.4111328125 16.62890625  0.8466796875 15.27109375  Z M 20.07958984375 19.10390625  C 21.12548828125 19.56796875  22.2239583333333 19.8  23.375 19.8  C 24.5260416666667 19.8  25.62451171875 19.56796875  26.67041015625 19.10390625  C 27.71630859375 18.63984375  28.62109375 18.0125  29.384765625 17.221875  C 30.1484375 16.43125  30.75439453125 15.49453125  31.20263671875 14.41171875  C 31.65087890625 13.32890625  31.875 12.1916666666667  31.875 11  C 31.875 9.80833333333333  31.65087890625 8.67109375  31.20263671875 7.58828125  C 30.75439453125 6.50546875  30.1484375 5.56875  29.384765625 4.778125  C 28.62109375 3.9875  27.71630859375 3.36015625  26.67041015625 2.89609375  C 25.62451171875 2.43203125  24.5260416666667 2.2  23.375 2.2  C 22.2239583333333 2.2  21.12548828125 2.43203125  20.07958984375 2.89609375  C 19.03369140625 3.36015625  18.12890625 3.9875  17.365234375 4.778125  C 16.6015625 5.56875  15.99560546875 6.50546875  15.54736328125 7.58828125  C 15.09912109375 8.67109375  14.875 9.80833333333333  14.875 11  C 14.875 12.1916666666667  15.09912109375 13.32890625  15.54736328125 14.41171875  C 15.99560546875 15.49453125  16.6015625 16.43125  17.365234375 17.221875  C 18.12890625 18.0125  19.03369140625 18.63984375  20.07958984375 19.10390625  Z " fill-rule="nonzero" fill="#000000" stroke="none" transform="matrix(1 0 0 1 859 723 )" />
  </g>
</svg>