<?xml version="1.0" encoding="utf-8"?>
<svg version="1.1" xmlns:xlink="http://www.w3.org/1999/xlink" width="26px" height="29px" xmlns="http://www.w3.org/2000/svg">
  <g transform="matrix(1 0 0 1 -683 -1628 )">
    <path d="M 25.3872053872054 21.6767676767677  C 25.7957351290685 22.1324354657688  26 22.685746352413  26 23.3367003367003  C 26 23.9876543209877  25.7957351290685 24.5409652076319  25.3872053872054 24.996632996633  L 22.4107744107744 28.3164983164983  C 22.0022446689113 28.7721661054994  21.5061728395062 29  20.9225589225589 29  C 20.3389450056117 29  19.8428731762065 28.7721661054994  19.4343434343434 28.3164983164983  L 13 21.1397306397306  L 6.56565656565657 28.3164983164983  C 6.15712682379349 28.7721661054994  5.66105499438833 29  5.07744107744108 29  C 4.49382716049383 29  3.99775533108867 28.7721661054994  3.58922558922559 28.3164983164983  L 0.612794612794613 24.996632996633  C 0.204264870931538 24.5409652076319  0 23.9876543209877  0 23.3367003367003  C 0 22.685746352413  0.204264870931538 22.1324354657688  0.612794612794613 21.6767676767677  L 7.04713804713805 14.5  L 0.612794612794613 7.32323232323232  C 0.204264870931538 6.8675645342312  0 6.31425364758698  0 5.66329966329966  C 0 5.01234567901235  0.204264870931538 4.45903479236812  0.612794612794613 4.003367003367  L 3.58922558922559 0.683501683501684  C 3.99775533108867 0.22783389450056  4.49382716049383 0  5.07744107744108 0  C 5.66105499438833 0  6.15712682379349 0.22783389450056  6.56565656565657 0.683501683501684  L 13 7.86026936026936  L 19.4343434343434 0.683501683501684  C 19.8428731762065 0.22783389450056  20.3389450056117 0  20.9225589225589 0  C 21.5061728395062 0  22.0022446689113 0.22783389450056  22.4107744107744 0.683501683501684  L 25.3872053872054 4.003367003367  C 25.7957351290685 4.45903479236812  26 5.01234567901235  26 5.66329966329966  C 26 6.31425364758698  25.7957351290685 6.8675645342312  25.3872053872054 7.32323232323232  L 18.952861952862 14.5  L 25.3872053872054 21.6767676767677  Z " fill-rule="nonzero" fill="#000000" stroke="none" transform="matrix(1 0 0 1 683 1628 )" />
  </g>
</svg>