<?xml version="1.0" encoding="utf-8"?>
<svg version="1.1" xmlns:xlink="http://www.w3.org/1999/xlink" width="15px" height="18px" xmlns="http://www.w3.org/2000/svg">
  <g transform="matrix(1 0 0 1 -1230 -477 )">
    <path d="M 14.7216796875 10.8792613636364  C 14.9072265625 11.0411931818182  15 11.2329545454545  15 11.4545454545455  C 15 11.6761363636364  14.9072265625 11.8678977272727  14.7216796875 12.0298295454545  L 8.1591796875 17.7571022727273  C 7.9736328125 17.9190340909091  7.75390625 18  7.5 18  C 7.24609375 18  7.0263671875 17.9190340909091  6.8408203125 17.7571022727273  L 0.2783203125 12.0298295454545  C 0.0927734375 11.8678977272727  0 11.6761363636364  0 11.4545454545455  C 0 11.2329545454545  0.0927734375 11.0411931818182  0.2783203125 10.8792613636364  C 0.4638671875 10.7173295454545  0.68359375 10.6363636363636  0.9375 10.6363636363636  L 14.0625 10.6363636363636  C 14.31640625 10.6363636363636  14.5361328125 10.7173295454545  14.7216796875 10.8792613636364  Z M 14.7216796875 5.97017045454545  C 14.9072265625 6.13210227272727  15 6.32386363636363  15 6.54545454545455  C 15 6.76704545454545  14.9072265625 6.95880681818182  14.7216796875 7.12073863636364  C 14.5361328125 7.28267045454546  14.31640625 7.36363636363636  14.0625 7.36363636363636  L 0.9375 7.36363636363636  C 0.68359375 7.36363636363636  0.4638671875 7.28267045454546  0.2783203125 7.12073863636364  C 0.0927734375 6.95880681818182  0 6.76704545454545  0 6.54545454545455  C 0 6.32386363636363  0.0927734375 6.13210227272727  0.2783203125 5.97017045454545  L 6.8408203125 0.242897727272728  C 7.0263671875 0.0809659090909074  7.24609375 0  7.5 0  C 7.75390625 0  7.9736328125 0.0809659090909074  8.1591796875 0.242897727272728  L 14.7216796875 5.97017045454545  Z " fill-rule="nonzero" fill="#000000" stroke="none" transform="matrix(1 0 0 1 1230 477 )" />
  </g>
</svg>