<?xml version="1.0" encoding="utf-8"?>
<svg version="1.1" xmlns:xlink="http://www.w3.org/1999/xlink" width="70px" height="76px" xmlns="http://www.w3.org/2000/svg">
  <g transform="matrix(1 0 0 1 -1087 -1385 )">
    <path d="M 1088 1389  A 3 3 0 0 1 1091 1386 L 1153 1386  A 3 3 0 0 1 1156 1389 L 1156 1457  A 3 3 0 0 1 1153 1460 L 1091 1460  A 3 3 0 0 1 1088 1457 L 1088 1389  Z " fill-rule="nonzero" fill="#000000" stroke="none" fill-opacity="0.0196078431372549" />
    <path d="M 1087.5 1389  A 3.5 3.5 0 0 1 1091 1385.5 L 1153 1385.5  A 3.5 3.5 0 0 1 1156.5 1389 L 1156.5 1457  A 3.5 3.5 0 0 1 1153 1460.5 L 1091 1460.5  A 3.5 3.5 0 0 1 1087.5 1457 L 1087.5 1389  Z " stroke-width="1" stroke-dasharray="9,4" stroke="#d9d9d9" fill="none" stroke-dashoffset="0.5" />
  </g>
</svg>