<?xml version="1.0" encoding="utf-8"?>
<svg version="1.1" xmlns:xlink="http://www.w3.org/1999/xlink" width="104px" height="104px" xmlns="http://www.w3.org/2000/svg">
  <g transform="matrix(1 0 0 1 -862 -1361 )">
    <path d="M 863 1365  A 3 3 0 0 1 866 1362 L 962 1362  A 3 3 0 0 1 965 1365 L 965 1461  A 3 3 0 0 1 962 1464 L 866 1464  A 3 3 0 0 1 863 1461 L 863 1365  Z " fill-rule="nonzero" fill="#000000" stroke="none" fill-opacity="0.0196078431372549" />
    <path d="M 862.5 1365  A 3.5 3.5 0 0 1 866 1361.5 L 962 1361.5  A 3.5 3.5 0 0 1 965.5 1365 L 965.5 1461  A 3.5 3.5 0 0 1 962 1464.5 L 866 1464.5  A 3.5 3.5 0 0 1 862.5 1461 L 862.5 1365  Z " stroke-width="1" stroke-dasharray="9,4" stroke="#d9d9d9" fill="none" stroke-dashoffset="0.5" />
  </g>
</svg>