<?xml version="1.0" encoding="utf-8"?>
<svg version="1.1" xmlns:xlink="http://www.w3.org/1999/xlink" width="25px" height="25px" xmlns="http://www.w3.org/2000/svg">
  <g transform="matrix(1 0 0 1 -1002 -2078 )">
    <path d="M 18.9453125 22.703125  C 19.1356169871795 22.5052083333333  19.2307692307692 22.2708333333333  19.2307692307692 22  C 19.2307692307692 21.7291666666667  19.1356169871795 21.4947916666667  18.9453125 21.296875  C 18.7550080128205 21.0989583333333  18.5296474358974 21  18.2692307692308 21  C 18.0088141025641 21  17.783453525641 21.0989583333333  17.5931490384615 21.296875  C 17.4028445512821 21.4947916666667  17.3076923076923 21.7291666666667  17.3076923076923 22  C 17.3076923076923 22.2708333333333  17.4028445512821 22.5052083333333  17.5931490384615 22.703125  C 17.783453525641 22.9010416666667  18.0088141025641 23  18.2692307692308 23  C 18.5296474358974 23  18.7550080128205 22.9010416666667  18.9453125 22.703125  Z M 22.7914663461538 22.703125  C 22.9817708333333 22.5052083333333  23.0769230769231 22.2708333333333  23.0769230769231 22  C 23.0769230769231 21.7291666666667  22.9817708333333 21.4947916666667  22.7914663461538 21.296875  C 22.6011618589744 21.0989583333333  22.3758012820513 21  22.1153846153846 21  C 21.8549679487179 21  21.6296073717949 21.0989583333333  21.4393028846154 21.296875  C 21.2489983974359 21.4947916666667  21.1538461538462 21.7291666666667  21.1538461538462 22  C 21.1538461538462 22.2708333333333  21.2489983974359 22.5052083333333  21.4393028846154 22.703125  C 21.6296073717949 22.9010416666667  21.8549679487179 23  22.1153846153846 23  C 22.3758012820513 23  22.6011618589744 22.9010416666667  22.7914663461538 22.703125  Z M 24.5793269230769 17.4375  C 24.8597756410256 17.7291666666667  25 18.0833333333333  25 18.5  L 25 23.5  C 25 23.9166666666667  24.8597756410256 24.2708333333333  24.5793269230769 24.5625  C 24.2988782051282 24.8541666666667  23.9583333333333 25  23.5576923076923 25  L 1.44230769230769 25  C 1.04166666666667 25  0.701121794871795 24.8541666666667  0.420673076923077 24.5625  C 0.140224358974359 24.2708333333333  0 23.9166666666667  0 23.5  L 0 18.5  C 0 18.0833333333333  0.140224358974359 17.7291666666667  0.420673076923077 17.4375  C 0.701121794871795 17.1458333333333  1.04166666666667 17  1.44230769230769 17  L 7.85757211538462 17  C 8.06790865384615 17.5833333333333  8.42097355769231 18.0625  8.91676682692308 18.4375  C 9.41256009615385 18.8125  9.96594551282051 19  10.5769230769231 19  L 14.4230769230769 19  C 15.0340544871795 19  15.5874399038462 18.8125  16.0832331730769 18.4375  C 16.5790264423077 18.0625  16.9320913461538 17.5833333333333  17.1424278846154 17  L 23.5576923076923 17  C 23.9583333333333 17  24.2988782051282 17.1458333333333  24.5793269230769 17.4375  Z M 19.9068509615385 7.296875  C 20.2173477564103 7.609375  20.2874599358974 7.96875  20.1171875 8.375  C 19.9469150641026 8.79166666666666  19.6514423076923 9  19.2307692307692 9  L 15.3846153846154 9  L 15.3846153846154 16  C 15.3846153846154 16.2708333333333  15.2894631410256 16.5052083333333  15.0991586538462 16.703125  C 14.9088541666667 16.9010416666667  14.6834935897436 17  14.4230769230769 17  L 10.5769230769231 17  C 10.3165064102564 17  10.0911458333333 16.9010416666667  9.90084134615385 16.703125  C 9.71053685897436 16.5052083333333  9.61538461538462 16.2708333333333  9.61538461538462 16  L 9.61538461538462 9  L 5.76923076923077 9  C 5.34855769230769 9  5.05308493589744 8.79166666666666  4.8828125 8.375  C 4.71254006410256 7.96875  4.78265224358974 7.609375  5.09314903846154 7.296875  L 11.8239182692308 0.296874999999999  C 12.0042067307692 0.0989583333333321  12.2295673076923 0  12.5 0  C 12.7704326923077 0  12.9957932692308 0.0989583333333321  13.1760817307692 0.296874999999999  L 19.9068509615385 7.296875  Z " fill-rule="nonzero" fill="#000000" stroke="none" transform="matrix(1 0 0 1 1002 2078 )" />
  </g>
</svg>