<?xml version="1.0" encoding="utf-8"?>
<svg version="1.1" xmlns:xlink="http://www.w3.org/1999/xlink" width="132px" height="10px" preserveAspectRatio="xMinYMid meet" viewBox="715 1576  132 8" xmlns="http://www.w3.org/2000/svg">
  <path d="M 842 1553  L 842 1575  A 5 5 0 0 1 837 1580 L 725 1580  A 5 5 0 0 0 720 1585 L 720 1616  A 5 5 0 0 1 715 1621 L 703 1621  " stroke-width="2" stroke="#d9001b" fill="none" />
  <path d="M 708.107106781187 1625.29289321881  L 703.814213562373 1621  L 708.107106781187 1616.70710678119  L 706.692893218813 1615.29289321881  L 701.692893218813 1620.29289321881  L 700.985786437627 1621  L 701.692893218813 1621.70710678119  L 706.692893218813 1626.70710678119  L 708.107106781187 1625.29289321881  Z M 714.507106781187 1625.29289321881  L 710.214213562373 1621  L 714.507106781187 1616.70710678119  L 713.092893218813 1615.29289321881  L 708.092893218813 1620.29289321881  L 707.385786437627 1621  L 708.092893218813 1621.70710678119  L 713.092893218813 1626.70710678119  L 714.507106781187 1625.29289321881  Z " fill-rule="nonzero" fill="#d9001b" stroke="none" />
</svg>