<?xml version="1.0" encoding="utf-8"?>
<svg version="1.1" xmlns:xlink="http://www.w3.org/1999/xlink" width="16px" height="17px" xmlns="http://www.w3.org/2000/svg">
  <g transform="matrix(1 0 0 1 -933 -2053 )">
    <path d="M 9.23958333333333 14.0670572916667  C 9.30208333333333 14.0006510416667  9.33333333333333 13.9157986111111  9.33333333333333 13.8125  L 9.33333333333333 11.6875  C 9.33333333333333 11.5842013888889  9.30208333333333 11.4993489583333  9.23958333333333 11.4329427083333  C 9.17708333333333 11.3665364583333  9.09722222222222 11.3333333333333  9 11.3333333333333  L 7 11.3333333333333  C 6.90277777777778 11.3333333333333  6.82291666666667 11.3665364583333  6.76041666666667 11.4329427083333  C 6.69791666666667 11.4993489583333  6.66666666666667 11.5842013888889  6.66666666666667 11.6875  L 6.66666666666667 13.8125  C 6.66666666666667 13.9157986111111  6.69791666666667 14.0006510416667  6.76041666666667 14.0670572916667  C 6.82291666666667 14.1334635416667  6.90277777777778 14.1666666666667  7 14.1666666666667  L 9 14.1666666666667  C 9.09722222222222 14.1666666666667  9.17708333333333 14.1334635416667  9.23958333333333 14.0670572916667  Z M 11.8697916666667 7.271484375  C 11.9565972222222 6.99848090277778  12 6.69965277777778  12 6.375  C 12 5.72569444444444  11.8072916666667 5.12434895833333  11.421875 4.57096354166667  C 11.0364583333333 4.017578125  10.5555555555556 3.58962673611111  9.97916666666667 3.287109375  C 9.40277777777778 2.98459201388889  8.8125 2.83333333333333  8.20833333333333 2.83333333333333  C 6.52083333333333 2.83333333333333  5.23263888888889 3.619140625  4.34375 5.19075520833333  C 4.23958333333333 5.36783854166667  4.26736111111111 5.52278645833333  4.42708333333333 5.65559895833333  L 5.80208333333333 6.76236979166667  C 5.85069444444445 6.806640625  5.91666666666667 6.82877604166667  6 6.82877604166667  C 6.11111111111111 6.82877604166667  6.19791666666667 6.78450520833333  6.26041666666667 6.69596354166667  C 6.62847222222222 6.19422743055556  6.92708333333333 5.85481770833333  7.15625 5.677734375  C 7.39236111111111 5.50065104166667  7.69097222222222 5.412109375  8.05208333333333 5.412109375  C 8.38541666666667 5.412109375  8.68229166666667 5.50802951388889  8.94270833333333 5.69986979166667  C 9.203125 5.89171006944444  9.33333333333333 6.109375  9.33333333333333 6.35286458333333  C 9.33333333333333 6.63324652777778  9.26388888888889 6.85828993055556  9.125 7.02799479166667  C 8.98611111111111 7.19769965277778  8.75 7.36371527777778  8.41666666666667 7.52604166666667  C 7.97916666666667 7.73263888888889  7.578125 8.0517578125  7.21354166666667 8.4833984375  C 6.84895833333333 8.9150390625  6.66666666666667 9.37803819444444  6.66666666666667 9.87239583333333  L 6.66666666666667 10.2708333333333  C 6.66666666666667 10.3741319444444  6.69791666666667 10.458984375  6.76041666666667 10.525390625  C 6.82291666666667 10.591796875  6.90277777777778 10.625  7 10.625  L 9 10.625  C 9.09722222222222 10.625  9.17708333333333 10.591796875  9.23958333333333 10.525390625  C 9.30208333333333 10.458984375  9.33333333333333 10.3741319444444  9.33333333333333 10.2708333333333  C 9.33333333333333 10.1306423611111  9.40798611111111 9.94802517361111  9.55729166666667 9.72298177083333  C 9.70659722222222 9.49793836805556  9.89583333333333 9.31532118055556  10.125 9.17513020833333  C 10.3472222222222 9.04231770833333  10.5173611111111 8.93717447916667  10.6354166666667 8.85970052083333  C 10.7534722222222 8.7822265625  10.9131944444444 8.65310329861111  11.1145833333333 8.47233072916667  C 11.3159722222222 8.29155815972222  11.4704861111111 8.11447482638889  11.578125 7.94108072916667  C 11.6857638888889 7.76768663194444  11.7829861111111 7.54448784722222  11.8697916666667 7.271484375  Z M 14.9270833333333 4.2333984375  C 15.6423611111111 5.53569878472222  16 6.95789930555555  16 8.5  C 16 10.0421006944444  15.6423611111111 11.4643012152778  14.9270833333333 12.7666015625  C 14.2118055555556 14.0689019097222  13.2413194444444 15.1000434027778  12.015625 15.8600260416667  C 10.7899305555556 16.6200086805556  9.45138888888889 17  8 17  C 6.54861111111111 17  5.21006944444444 16.6200086805556  3.984375 15.8600260416667  C 2.75868055555556 15.1000434027778  1.78819444444444 14.0689019097222  1.07291666666667 12.7666015625  C 0.357638888888889 11.4643012152778  0 10.0421006944444  0 8.5  C 0 6.95789930555555  0.357638888888889 5.53569878472222  1.07291666666667 4.2333984375  C 1.78819444444444 2.93109809027778  2.75868055555556 1.89995659722222  3.984375 1.13997395833333  C 5.21006944444444 0.379991319444443  6.54861111111111 0  8 0  C 9.45138888888889 0  10.7899305555556 0.379991319444443  12.015625 1.13997395833333  C 13.2413194444444 1.89995659722222  14.2118055555556 2.93109809027778  14.9270833333333 4.2333984375  Z " fill-rule="nonzero" fill="#000000" stroke="none" transform="matrix(1 0 0 1 933 2053 )" />
  </g>
</svg>