<?xml version="1.0" encoding="utf-8"?>
<svg version="1.1" xmlns:xlink="http://www.w3.org/1999/xlink" width="17px" height="15px" xmlns="http://www.w3.org/2000/svg">
  <g transform="matrix(1 0 0 1 -917 -2240 )">
    <path d="M 9.81705729166667 12.412109375  C 9.88346354166667 12.353515625  9.91666666666667 12.2786458333333  9.91666666666667 12.1875  L 9.91666666666667 10.3125  C 9.91666666666667 10.2213541666667  9.88346354166667 10.146484375  9.81705729166667 10.087890625  C 9.75065104166667 10.029296875  9.66579861111111 10  9.5625 10  L 7.4375 10  C 7.33420138888889 10  7.24934895833333 10.029296875  7.18294270833333 10.087890625  C 7.11653645833333 10.146484375  7.08333333333333 10.2213541666667  7.08333333333333 10.3125  L 7.08333333333333 12.1875  C 7.08333333333333 12.2786458333333  7.11653645833333 12.353515625  7.18294270833333 12.412109375  C 7.24934895833333 12.470703125  7.33420138888889 12.5  7.4375 12.5  L 9.5625 12.5  C 9.66579861111111 12.5  9.75065104166667 12.470703125  9.81705729166667 12.412109375  Z M 12.6116536458333 6.416015625  C 12.7038845486111 6.17513020833333  12.75 5.91145833333333  12.75 5.625  C 12.75 5.05208333333333  12.5452473958333 4.521484375  12.1357421875 4.033203125  C 11.7262369791667 3.544921875  11.2152777777778 3.16731770833333  10.6028645833333 2.900390625  C 9.99045138888889 2.63346354166667  9.36328125 2.5  8.72135416666667 2.5  C 6.92838541666667 2.5  5.55967881944444 3.193359375  4.615234375 4.580078125  C 4.50455729166667 4.736328125  4.53407118055556 4.873046875  4.70377604166667 4.990234375  L 6.16471354166667 5.966796875  C 6.21636284722222 6.005859375  6.28645833333333 6.025390625  6.375 6.025390625  C 6.49305555555556 6.025390625  6.58528645833333 5.986328125  6.65169270833333 5.908203125  C 7.04275173611111 5.46549479166667  7.36002604166667 5.166015625  7.603515625 5.009765625  C 7.85438368055556 4.853515625  8.17165798611111 4.775390625  8.55533854166667 4.775390625  C 8.90950520833333 4.775390625  9.22493489583333 4.86002604166667  9.50162760416667 5.029296875  C 9.7783203125 5.19856770833333  9.91666666666667 5.390625  9.91666666666667 5.60546875  C 9.91666666666667 5.85286458333333  9.84288194444444 6.05143229166667  9.6953125 6.201171875  C 9.54774305555556 6.35091145833333  9.296875 6.49739583333333  8.94270833333333 6.640625  C 8.47786458333333 6.82291666666667  8.0517578125 7.1044921875  7.66438802083333 7.4853515625  C 7.27701822916667 7.8662109375  7.08333333333333 8.27473958333333  7.08333333333333 8.7109375  L 7.08333333333333 9.0625  C 7.08333333333333 9.15364583333333  7.11653645833333 9.228515625  7.18294270833333 9.287109375  C 7.24934895833333 9.345703125  7.33420138888889 9.375  7.4375 9.375  L 9.5625 9.375  C 9.66579861111111 9.375  9.75065104166667 9.345703125  9.81705729166667 9.287109375  C 9.88346354166667 9.228515625  9.91666666666667 9.15364583333333  9.91666666666667 9.0625  C 9.91666666666667 8.93880208333333  9.99598524305556 8.77766927083333  10.1546223958333 8.5791015625  C 10.3132595486111 8.38053385416667  10.5143229166667 8.21940104166667  10.7578125 8.095703125  C 10.9939236111111 7.978515625  11.1746961805556 7.8857421875  11.3001302083333 7.8173828125  C 11.4255642361111 7.7490234375  11.5952690972222 7.63509114583333  11.8092447916667 7.4755859375  C 12.0232204861111 7.31608072916667  12.1873914930556 7.15983072916667  12.3017578125 7.0068359375  C 12.4161241319444 6.85384114583333  12.5194227430556 6.65690104166667  12.6116536458333 6.416015625  Z M 15.8600260416667 3.7353515625  C 16.6200086805556 4.88444010416667  17 6.13932291666666  17 7.5  C 17 8.86067708333333  16.6200086805556 10.1155598958333  15.8600260416667 11.2646484375  C 15.1000434027778 12.4137369791667  14.0689019097222 13.3235677083333  12.7666015625 13.994140625  C 11.4643012152778 14.6647135416667  10.0421006944444 15  8.5 15  C 6.95789930555556 15  5.53569878472222 14.6647135416667  4.2333984375 13.994140625  C 2.93109809027778 13.3235677083333  1.89995659722222 12.4137369791667  1.13997395833333 11.2646484375  C 0.379991319444444 10.1155598958333  0 8.86067708333333  0 7.5  C 0 6.13932291666666  0.379991319444444 4.88444010416667  1.13997395833333 3.7353515625  C 1.89995659722222 2.58626302083333  2.93109809027778 1.67643229166667  4.2333984375 1.005859375  C 5.53569878472222 0.335286458333332  6.95789930555556 0  8.5 0  C 10.0421006944444 0  11.4643012152778 0.335286458333332  12.7666015625 1.005859375  C 14.0689019097222 1.67643229166667  15.1000434027778 2.58626302083333  15.8600260416667 3.7353515625  Z " fill-rule="nonzero" fill="#000000" stroke="none" transform="matrix(1 0 0 1 917 2240 )" />
  </g>
</svg>