<?xml version="1.0" encoding="utf-8"?>
<svg version="1.1" xmlns:xlink="http://www.w3.org/1999/xlink" width="16px" height="15px" xmlns="http://www.w3.org/2000/svg">
  <g transform="matrix(1 0 0 1 -856 -2648 )">
    <path d="M 9.23958333333333 12.412109375  C 9.30208333333333 12.353515625  9.33333333333333 12.2786458333333  9.33333333333333 12.1875  L 9.33333333333333 10.3125  C 9.33333333333333 10.2213541666667  9.30208333333333 10.146484375  9.23958333333333 10.087890625  C 9.17708333333333 10.029296875  9.09722222222222 10  9 10  L 7 10  C 6.90277777777778 10  6.82291666666667 10.029296875  6.76041666666667 10.087890625  C 6.69791666666667 10.146484375  6.66666666666667 10.2213541666667  6.66666666666667 10.3125  L 6.66666666666667 12.1875  C 6.66666666666667 12.2786458333333  6.69791666666667 12.353515625  6.76041666666667 12.412109375  C 6.82291666666667 12.470703125  6.90277777777778 12.5  7 12.5  L 9 12.5  C 9.09722222222222 12.5  9.17708333333333 12.470703125  9.23958333333333 12.412109375  Z M 11.8697916666667 6.416015625  C 11.9565972222222 6.17513020833333  12 5.91145833333333  12 5.625  C 12 5.05208333333333  11.8072916666667 4.521484375  11.421875 4.033203125  C 11.0364583333333 3.544921875  10.5555555555556 3.16731770833333  9.97916666666667 2.900390625  C 9.40277777777778 2.63346354166667  8.8125 2.5  8.20833333333333 2.5  C 6.52083333333333 2.5  5.23263888888889 3.193359375  4.34375 4.580078125  C 4.23958333333333 4.736328125  4.26736111111111 4.873046875  4.42708333333333 4.990234375  L 5.80208333333333 5.966796875  C 5.85069444444445 6.005859375  5.91666666666667 6.025390625  6 6.025390625  C 6.11111111111111 6.025390625  6.19791666666667 5.986328125  6.26041666666667 5.908203125  C 6.62847222222222 5.46549479166667  6.92708333333333 5.166015625  7.15625 5.009765625  C 7.39236111111111 4.853515625  7.69097222222222 4.775390625  8.05208333333333 4.775390625  C 8.38541666666667 4.775390625  8.68229166666667 4.86002604166667  8.94270833333333 5.029296875  C 9.203125 5.19856770833333  9.33333333333333 5.390625  9.33333333333333 5.60546875  C 9.33333333333333 5.85286458333333  9.26388888888889 6.05143229166667  9.125 6.201171875  C 8.98611111111111 6.35091145833333  8.75 6.49739583333333  8.41666666666667 6.640625  C 7.97916666666667 6.82291666666667  7.578125 7.1044921875  7.21354166666667 7.4853515625  C 6.84895833333333 7.8662109375  6.66666666666667 8.27473958333333  6.66666666666667 8.7109375  L 6.66666666666667 9.0625  C 6.66666666666667 9.15364583333333  6.69791666666667 9.228515625  6.76041666666667 9.287109375  C 6.82291666666667 9.345703125  6.90277777777778 9.375  7 9.375  L 9 9.375  C 9.09722222222222 9.375  9.17708333333333 9.345703125  9.23958333333333 9.287109375  C 9.30208333333333 9.228515625  9.33333333333333 9.15364583333333  9.33333333333333 9.0625  C 9.33333333333333 8.93880208333333  9.40798611111111 8.77766927083333  9.55729166666667 8.5791015625  C 9.70659722222222 8.38053385416667  9.89583333333333 8.21940104166667  10.125 8.095703125  C 10.3472222222222 7.978515625  10.5173611111111 7.8857421875  10.6354166666667 7.8173828125  C 10.7534722222222 7.7490234375  10.9131944444444 7.63509114583333  11.1145833333333 7.4755859375  C 11.3159722222222 7.31608072916667  11.4704861111111 7.15983072916667  11.578125 7.0068359375  C 11.6857638888889 6.85384114583333  11.7829861111111 6.65690104166667  11.8697916666667 6.416015625  Z M 14.9270833333333 3.7353515625  C 15.6423611111111 4.88444010416667  16 6.13932291666666  16 7.5  C 16 8.86067708333333  15.6423611111111 10.1155598958333  14.9270833333333 11.2646484375  C 14.2118055555556 12.4137369791667  13.2413194444444 13.3235677083333  12.015625 13.994140625  C 10.7899305555556 14.6647135416667  9.45138888888889 15  8 15  C 6.54861111111111 15  5.21006944444444 14.6647135416667  3.984375 13.994140625  C 2.75868055555556 13.3235677083333  1.78819444444444 12.4137369791667  1.07291666666667 11.2646484375  C 0.357638888888889 10.1155598958333  0 8.86067708333333  0 7.5  C 0 6.13932291666666  0.357638888888889 4.88444010416667  1.07291666666667 3.7353515625  C 1.78819444444444 2.58626302083333  2.75868055555556 1.67643229166667  3.984375 1.005859375  C 5.21006944444444 0.335286458333332  6.54861111111111 0  8 0  C 9.45138888888889 0  10.7899305555556 0.335286458333332  12.015625 1.005859375  C 13.2413194444444 1.67643229166667  14.2118055555556 2.58626302083333  14.9270833333333 3.7353515625  Z " fill-rule="nonzero" fill="#000000" stroke="none" transform="matrix(1 0 0 1 856 2648 )" />
  </g>
</svg>