<?xml version="1.0" encoding="utf-8"?>
<svg version="1.1" xmlns:xlink="http://www.w3.org/1999/xlink" width="70px" height="76px" xmlns="http://www.w3.org/2000/svg">
  <g transform="matrix(1 0 0 1 -1078 -1407 )">
    <path d="M 1079 1411  A 3 3 0 0 1 1082 1408 L 1144 1408  A 3 3 0 0 1 1147 1411 L 1147 1479  A 3 3 0 0 1 1144 1482 L 1082 1482  A 3 3 0 0 1 1079 1479 L 1079 1411  Z " fill-rule="nonzero" fill="#000000" stroke="none" fill-opacity="0.0196078431372549" />
    <path d="M 1078.5 1411  A 3.5 3.5 0 0 1 1082 1407.5 L 1144 1407.5  A 3.5 3.5 0 0 1 1147.5 1411 L 1147.5 1479  A 3.5 3.5 0 0 1 1144 1482.5 L 1082 1482.5  A 3.5 3.5 0 0 1 1078.5 1479 L 1078.5 1411  Z " stroke-width="1" stroke-dasharray="9,4" stroke="#d9d9d9" fill="none" stroke-dashoffset="0.5" />
  </g>
</svg>