<?xml version="1.0" encoding="utf-8"?>
<svg version="1.1" xmlns:xlink="http://www.w3.org/1999/xlink" width="10px" height="79px" preserveAspectRatio="xMidYMin meet" viewBox="644 1916  8 79" xmlns="http://www.w3.org/2000/svg">
  <path d="M 849 2004  L 849 1995  A 5 5 0 0 0 844 1990 L 653 1990  A 5 5 0 0 1 648 1985 L 648 1918  " stroke-width="2" stroke="#d9001b" fill="none" />
  <path d="M 643.707106781187 1923.10710678119  L 648 1918.81421356237  L 652.292893218813 1923.10710678119  L 653.707106781187 1921.69289321881  L 648.707106781187 1916.69289321881  L 648 1915.98578643763  L 647.292893218813 1916.69289321881  L 642.292893218813 1921.69289321881  L 643.707106781187 1923.10710678119  Z M 643.707106781187 1929.50710678119  L 648 1925.21421356237  L 652.292893218813 1929.50710678119  L 653.707106781187 1928.09289321881  L 648.707106781187 1923.09289321881  L 648 1922.38578643763  L 647.292893218813 1923.09289321881  L 642.292893218813 1928.09289321881  L 643.707106781187 1929.50710678119  Z " fill-rule="nonzero" fill="#d9001b" stroke="none" />
</svg>