<?xml version="1.0" encoding="utf-8"?>
<svg version="1.1" xmlns:xlink="http://www.w3.org/1999/xlink" width="138px" height="179px" xmlns="http://www.w3.org/2000/svg">
  <defs>
    <filter x="463px" y="717px" width="138px" height="179px" filterUnits="userSpaceOnUse" id="filter9">
      <feOffset dx="1" dy="1" in="SourceAlpha" result="shadowOffsetInner" />
      <feGaussianBlur stdDeviation="2.5" in="shadowOffsetInner" result="shadowGaussian" />
      <feComposite in2="shadowGaussian" operator="atop" in="SourceAlpha" result="shadowComposite" />
      <feColorMatrix type="matrix" values="0 0 0 0 0  0 0 0 0 0  0 0 0 0 0  0 0 0 0.698039215686274 0  " in="shadowComposite" />
    </filter>
    <g id="widget10">
      <path d="M 531 889.043283194993  C 505.6 847.161251196919  467.5 822.032031998074  467.5 780.15  C 467.5 758.365714285714  480.2 721.5  531 721.5  C 581.8 721.5  594.5 758.365714285714  594.5 780.15  C 594.5 822.032031998074  556.4 847.161251196919  531 889.043283194993  Z " fill-rule="nonzero" fill="#009dd9" stroke="none" />
      <path d="M 531 890  C 505.4 847.75  467 822.4  467 780.15  C 467 758.18  479.8 721  531 721  C 582.2 721  595 758.18  595 780.15  C 595 822.4  556.6 847.75  531 890  Z M 531 888.086566389986  C 556.2 846.572502393837  594 821.664063996148  594 780.15  C 594 758.551428571429  581.4 722  531 722  C 480.6 722  468 758.551428571429  468 780.15  C 468 821.664063996148  505.8 846.572502393837  531 888.086566389986  Z " fill-rule="nonzero" fill="#ffffff" stroke="none" />
    </g>
  </defs>
  <g transform="matrix(1 0 0 1 -463 -717 )">
    <use xlink:href="#widget10" filter="url(#filter9)" />
    <use xlink:href="#widget10" />
  </g>
</svg>