<?xml version="1.0" encoding="utf-8"?>
<svg version="1.1" xmlns:xlink="http://www.w3.org/1999/xlink" width="75px" height="10px" preserveAspectRatio="xMinYMid meet" viewBox="149 724  75 8" xmlns="http://www.w3.org/2000/svg">
  <path d="M 261 754  L 224 754  A 5 5 0 0 1 219 749 L 219 733  A 5 5 0 0 0 214 728 L 151 728  " stroke-width="2" stroke="#d9001b" fill="none" />
  <path d="M 156.107106781187 732.292893218813  L 151.814213562373 728  L 156.107106781187 723.707106781187  L 154.692893218813 722.292893218813  L 149.692893218813 727.292893218813  L 148.985786437627 728  L 149.692893218813 728.707106781187  L 154.692893218813 733.707106781187  L 156.107106781187 732.292893218813  Z M 162.507106781187 732.292893218813  L 158.214213562373 728  L 162.507106781187 723.707106781187  L 161.092893218813 722.292893218813  L 156.092893218813 727.292893218813  L 155.385786437627 728  L 156.092893218813 728.707106781187  L 161.092893218813 733.707106781187  L 162.507106781187 732.292893218813  Z " fill-rule="nonzero" fill="#d9001b" stroke="none" />
</svg>