<?xml version="1.0" encoding="utf-8"?>
<svg version="1.1" xmlns:xlink="http://www.w3.org/1999/xlink" width="10px" height="76px" preserveAspectRatio="xMidYMin meet" viewBox="176 955  8 76" xmlns="http://www.w3.org/2000/svg">
  <path d="M 264 970  L 264 965  A 5 5 0 0 0 259 960 L 185 960  A 5 5 0 0 0 180 965 L 180 1021  A 5 5 0 0 1 175 1026 L 162 1026  " stroke-width="2" stroke="#d9001b" fill="none" />
  <path d="M 167.107106781187 1030.29289321881  L 162.814213562373 1026  L 167.107106781187 1021.70710678119  L 165.692893218813 1020.29289321881  L 160.692893218813 1025.29289321881  L 159.985786437627 1026  L 160.692893218813 1026.70710678119  L 165.692893218813 1031.70710678119  L 167.107106781187 1030.29289321881  Z M 173.507106781187 1030.29289321881  L 169.214213562373 1026  L 173.507106781187 1021.70710678119  L 172.092893218813 1020.29289321881  L 167.092893218813 1025.29289321881  L 166.385786437627 1026  L 167.092893218813 1026.70710678119  L 172.092893218813 1031.70710678119  L 173.507106781187 1030.29289321881  Z " fill-rule="nonzero" fill="#d9001b" stroke="none" />
</svg>