<?xml version="1.0" encoding="utf-8"?>
<svg version="1.1" xmlns:xlink="http://www.w3.org/1999/xlink" width="20px" height="27px" preserveAspectRatio="xMidYMin meet" viewBox="134 1344  18 27" xmlns="http://www.w3.org/2000/svg">
  <path d="M 302 1359  L 302 1345  A 5 5 0 0 0 297 1340 L 148 1340  A 5 5 0 0 0 143 1345 L 143 1361  " stroke-width="2" stroke="#d9001b" fill="none" />
  <path d="M 147.292893218813 1355.89289321881  L 143 1360.18578643763  L 138.707106781187 1355.89289321881  L 137.292893218813 1357.30710678119  L 142.292893218813 1362.30710678119  L 143 1363.01421356237  L 143.707106781187 1362.30710678119  L 148.707106781187 1357.30710678119  L 147.292893218813 1355.89289321881  Z M 147.292893218813 1349.49289321881  L 143 1353.78578643763  L 138.707106781187 1349.49289321881  L 137.292893218813 1350.90710678119  L 142.292893218813 1355.90710678119  L 143 1356.61421356237  L 143.707106781187 1355.90710678119  L 148.707106781187 1350.90710678119  L 147.292893218813 1349.49289321881  Z " fill-rule="nonzero" fill="#d9001b" stroke="none" />
</svg>