<?xml version="1.0" encoding="utf-8"?>
<svg version="1.1" xmlns:xlink="http://www.w3.org/1999/xlink" width="18px" height="19px" xmlns="http://www.w3.org/2000/svg">
  <g transform="matrix(1 0 0 1 -362 -1006 )">
    <path d="M 10.39453125 15.7220052083333  C 10.46484375 15.6477864583333  10.5 15.5529513888889  10.5 15.4375  L 10.5 13.0625  C 10.5 12.9470486111111  10.46484375 12.8522135416667  10.39453125 12.7779947916667  C 10.32421875 12.7037760416667  10.234375 12.6666666666667  10.125 12.6666666666667  L 7.875 12.6666666666667  C 7.765625 12.6666666666667  7.67578125 12.7037760416667  7.60546875 12.7779947916667  C 7.53515625 12.8522135416667  7.5 12.9470486111111  7.5 13.0625  L 7.5 15.4375  C 7.5 15.5529513888889  7.53515625 15.6477864583333  7.60546875 15.7220052083333  C 7.67578125 15.7962239583333  7.765625 15.8333333333333  7.875 15.8333333333333  L 10.125 15.8333333333333  C 10.234375 15.8333333333333  10.32421875 15.7962239583333  10.39453125 15.7220052083333  Z M 13.353515625 8.126953125  C 13.451171875 7.82183159722222  13.5 7.48784722222222  13.5 7.125  C 13.5 6.39930555555555  13.283203125 5.72721354166667  12.849609375 5.10872395833333  C 12.416015625 4.490234375  11.875 4.01193576388889  11.2265625 3.673828125  C 10.578125 3.33572048611111  9.9140625 3.16666666666667  9.234375 3.16666666666667  C 7.3359375 3.16666666666667  5.88671875 4.044921875  4.88671875 5.80143229166667  C 4.76953125 5.99934895833333  4.80078125 6.17252604166667  4.98046875 6.32096354166667  L 6.52734375 7.55794270833333  C 6.58203125 7.607421875  6.65625 7.63216145833333  6.75 7.63216145833333  C 6.875 7.63216145833333  6.97265625 7.58268229166667  7.04296875 7.48372395833333  C 7.45703125 6.92296006944444  7.79296875 6.54361979166667  8.05078125 6.345703125  C 8.31640625 6.14778645833333  8.65234375 6.048828125  9.05859375 6.048828125  C 9.43359375 6.048828125  9.767578125 6.15603298611111  10.060546875 6.37044270833333  C 10.353515625 6.58485243055555  10.5 6.828125  10.5 7.10026041666667  C 10.5 7.41362847222222  10.421875 7.66514756944444  10.265625 7.85481770833333  C 10.109375 8.04448784722222  9.84375 8.23003472222222  9.46875 8.41145833333333  C 8.9765625 8.64236111111111  8.525390625 8.9990234375  8.115234375 9.4814453125  C 7.705078125 9.9638671875  7.5 10.4813368055556  7.5 11.0338541666667  L 7.5 11.4791666666667  C 7.5 11.5946180555556  7.53515625 11.689453125  7.60546875 11.763671875  C 7.67578125 11.837890625  7.765625 11.875  7.875 11.875  L 10.125 11.875  C 10.234375 11.875  10.32421875 11.837890625  10.39453125 11.763671875  C 10.46484375 11.689453125  10.5 11.5946180555556  10.5 11.4791666666667  C 10.5 11.3224826388889  10.583984375 11.1183810763889  10.751953125 10.8668619791667  C 10.919921875 10.6153428819444  11.1328125 10.4112413194444  11.390625 10.2545572916667  C 11.640625 10.1061197916667  11.83203125 9.98860677083333  11.96484375 9.90201822916667  C 12.09765625 9.8154296875  12.27734375 9.67111545138889  12.50390625 9.46907552083333  C 12.73046875 9.26703559027778  12.904296875 9.06911892361111  13.025390625 8.87532552083333  C 13.146484375 8.68153211805555  13.255859375 8.43207465277778  13.353515625 8.126953125  Z M 16.79296875 4.7314453125  C 17.59765625 6.18695746527778  18 7.77647569444444  18 9.5  C 18 11.2235243055556  17.59765625 12.8130425347222  16.79296875 14.2685546875  C 15.98828125 15.7240668402778  14.896484375 16.8765190972222  13.517578125 17.7259114583333  C 12.138671875 18.5753038194444  10.6328125 19  9 19  C 7.3671875 19  5.861328125 18.5753038194444  4.482421875 17.7259114583333  C 3.103515625 16.8765190972222  2.01171875 15.7240668402778  1.20703125 14.2685546875  C 0.40234375 12.8130425347222  0 11.2235243055556  0 9.5  C 0 7.77647569444444  0.40234375 6.18695746527778  1.20703125 4.7314453125  C 2.01171875 3.27593315972222  3.103515625 2.12348090277778  4.482421875 1.27408854166667  C 5.861328125 0.424696180555554  7.3671875 0  9 0  C 10.6328125 0  12.138671875 0.424696180555554  13.517578125 1.27408854166667  C 14.896484375 2.12348090277778  15.98828125 3.27593315972222  16.79296875 4.7314453125  Z " fill-rule="nonzero" fill="#000000" stroke="none" transform="matrix(1 0 0 1 362 1006 )" />
  </g>
</svg>