<?xml version="1.0" encoding="utf-8"?>
<svg version="1.1" xmlns:xlink="http://www.w3.org/1999/xlink" width="76px" height="73px" xmlns="http://www.w3.org/2000/svg">
  <g transform="matrix(1 0 0 1 -207 -2431 )">
    <path d="M 208 2435  A 3 3 0 0 1 211 2432 L 279 2432  A 3 3 0 0 1 282 2435 L 282 2500  A 3 3 0 0 1 279 2503 L 211 2503  A 3 3 0 0 1 208 2500 L 208 2435  Z " fill-rule="nonzero" fill="#000000" stroke="none" fill-opacity="0.0196078431372549" />
    <path d="M 207.5 2435  A 3.5 3.5 0 0 1 211 2431.5 L 279 2431.5  A 3.5 3.5 0 0 1 282.5 2435 L 282.5 2500  A 3.5 3.5 0 0 1 279 2503.5 L 211 2503.5  A 3.5 3.5 0 0 1 207.5 2500 L 207.5 2435  Z " stroke-width="1" stroke-dasharray="9,4" stroke="#d9d9d9" fill="none" stroke-dashoffset="0.5" />
  </g>
</svg>