<?xml version="1.0" encoding="utf-8"?>
<svg version="1.1" xmlns:xlink="http://www.w3.org/1999/xlink" width="26px" height="30px" xmlns="http://www.w3.org/2000/svg">
  <g transform="matrix(1 0 0 1 -853 -3051 )">
    <path d="M 25.3872053872054 22.4242424242424  C 25.7957351290685 22.8956228956229  26 23.4680134680135  26 24.1414141414141  C 26 24.8148148148148  25.7957351290685 25.3872053872054  25.3872053872054 25.8585858585859  L 22.4107744107744 29.2929292929293  C 22.0022446689113 29.7643097643098  21.5061728395062 30  20.9225589225589 30  C 20.3389450056117 30  19.8428731762065 29.7643097643098  19.4343434343434 29.2929292929293  L 13 21.8686868686869  L 6.56565656565657 29.2929292929293  C 6.15712682379349 29.7643097643098  5.66105499438833 30  5.07744107744108 30  C 4.49382716049383 30  3.99775533108867 29.7643097643098  3.58922558922559 29.2929292929293  L 0.612794612794613 25.8585858585859  C 0.204264870931538 25.3872053872054  0 24.8148148148148  0 24.1414141414141  C 0 23.4680134680135  0.204264870931538 22.8956228956229  0.612794612794613 22.4242424242424  L 7.04713804713805 15  L 0.612794612794613 7.57575757575757  C 0.204264870931538 7.1043771043771  0 6.53198653198653  0 5.85858585858586  C 0 5.18518518518519  0.204264870931538 4.61279461279461  0.612794612794613 4.14141414141414  L 3.58922558922559 0.707070707070707  C 3.99775533108867 0.235690235690235  4.49382716049383 0  5.07744107744108 0  C 5.66105499438833 0  6.15712682379349 0.235690235690235  6.56565656565657 0.707070707070707  L 13 8.13131313131313  L 19.4343434343434 0.707070707070707  C 19.8428731762065 0.235690235690235  20.3389450056117 0  20.9225589225589 0  C 21.5061728395062 0  22.0022446689113 0.235690235690235  22.4107744107744 0.707070707070707  L 25.3872053872054 4.14141414141414  C 25.7957351290685 4.61279461279461  26 5.18518518518519  26 5.85858585858586  C 26 6.53198653198653  25.7957351290685 7.1043771043771  25.3872053872054 7.57575757575757  L 18.952861952862 15  L 25.3872053872054 22.4242424242424  Z " fill-rule="nonzero" fill="#000000" stroke="none" transform="matrix(1 0 0 1 853 3051 )" />
  </g>
</svg>