<?xml version="1.0" encoding="utf-8"?>
<svg version="1.1" xmlns:xlink="http://www.w3.org/1999/xlink" width="20px" height="20px" xmlns="http://www.w3.org/2000/svg">
  <g transform="matrix(1 0 0 1 -1092 -843 )">
    <path d="M 15.15625 18.1625  C 15.3084935897436 18.0041666666667  15.3846153846154 17.8166666666667  15.3846153846154 17.6  C 15.3846153846154 17.3833333333333  15.3084935897436 17.1958333333333  15.15625 17.0375  C 15.0040064102564 16.8791666666667  14.823717948718 16.8  14.6153846153846 16.8  C 14.4070512820513 16.8  14.2267628205128 16.8791666666667  14.0745192307692 17.0375  C 13.9222756410256 17.1958333333333  13.8461538461538 17.3833333333333  13.8461538461538 17.6  C 13.8461538461538 17.8166666666667  13.9222756410256 18.0041666666667  14.0745192307692 18.1625  C 14.2267628205128 18.3208333333333  14.4070512820513 18.4  14.6153846153846 18.4  C 14.823717948718 18.4  15.0040064102564 18.3208333333333  15.15625 18.1625  Z M 18.2331730769231 18.1625  C 18.3854166666667 18.0041666666667  18.4615384615385 17.8166666666667  18.4615384615385 17.6  C 18.4615384615385 17.3833333333333  18.3854166666667 17.1958333333333  18.2331730769231 17.0375  C 18.0809294871795 16.8791666666667  17.900641025641 16.8  17.6923076923077 16.8  C 17.4839743589744 16.8  17.3036858974359 16.8791666666667  17.1514423076923 17.0375  C 16.9991987179487 17.1958333333333  16.9230769230769 17.3833333333333  16.9230769230769 17.6  C 16.9230769230769 17.8166666666667  16.9991987179487 18.0041666666667  17.1514423076923 18.1625  C 17.3036858974359 18.3208333333333  17.4839743589744 18.4  17.6923076923077 18.4  C 17.900641025641 18.4  18.0809294871795 18.3208333333333  18.2331730769231 18.1625  Z M 19.6634615384615 13.95  C 19.8878205128205 14.1833333333333  20 14.4666666666667  20 14.8  L 20 18.8  C 20 19.1333333333333  19.8878205128205 19.4166666666667  19.6634615384615 19.65  C 19.4391025641026 19.8833333333333  19.1666666666667 20  18.8461538461538 20  L 1.15384615384615 20  C 0.833333333333333 20  0.560897435897436 19.8833333333333  0.336538461538462 19.65  C 0.112179487179487 19.4166666666667  0 19.1333333333333  0 18.8  L 0 14.8  C 0 14.4666666666667  0.112179487179487 14.1833333333333  0.336538461538462 13.95  C 0.560897435897436 13.7166666666667  0.833333333333333 13.6  1.15384615384615 13.6  L 6.28605769230769 13.6  C 6.45432692307692 14.0666666666667  6.73677884615385 14.45  7.13341346153846 14.75  C 7.53004807692308 15.05  7.97275641025641 15.2  8.46153846153846 15.2  L 11.5384615384615 15.2  C 12.0272435897436 15.2  12.4699519230769 15.05  12.8665865384615 14.75  C 13.2632211538462 14.45  13.5456730769231 14.0666666666667  13.7139423076923 13.6  L 18.8461538461538 13.6  C 19.1666666666667 13.6  19.4391025641026 13.7166666666667  19.6634615384615 13.95  Z M 15.9254807692308 5.8375  C 16.1738782051282 6.0875  16.229967948718 6.375  16.09375 6.7  C 15.9575320512821 7.03333333333333  15.7211538461538 7.2  15.3846153846154 7.2  L 12.3076923076923 7.2  L 12.3076923076923 12.8  C 12.3076923076923 13.0166666666667  12.2315705128205 13.2041666666667  12.0793269230769 13.3625  C 11.9270833333333 13.5208333333333  11.7467948717949 13.6  11.5384615384615 13.6  L 8.46153846153846 13.6  C 8.25320512820513 13.6  8.07291666666667 13.5208333333333  7.92067307692308 13.3625  C 7.76842948717949 13.2041666666667  7.69230769230769 13.0166666666667  7.69230769230769 12.8  L 7.69230769230769 7.2  L 4.61538461538462 7.2  C 4.27884615384615 7.2  4.04246794871795 7.03333333333333  3.90625 6.7  C 3.77003205128205 6.375  3.8261217948718 6.0875  4.07451923076923 5.8375  L 9.45913461538462 0.237499999999999  C 9.60336538461539 0.0791666666666657  9.78365384615385 0  10 0  C 10.2163461538462 0  10.3966346153846 0.0791666666666657  10.5408653846154 0.237499999999999  L 15.9254807692308 5.8375  Z " fill-rule="nonzero" fill="#1890ff" stroke="none" transform="matrix(1 0 0 1 1092 843 )" />
  </g>
</svg>