<?xml version="1.0" encoding="utf-8"?>
<svg version="1.1" xmlns:xlink="http://www.w3.org/1999/xlink" width="26px" height="25px" xmlns="http://www.w3.org/2000/svg">
  <g transform="matrix(1 0 0 1 -950 -31 )">
    <path d="M 25.3872053872054 18.6868686868687  C 25.7957351290685 19.0796857463524  26 19.5566778900112  26 20.1178451178451  C 26 20.679012345679  25.7957351290685 21.1560044893378  25.3872053872054 21.5488215488215  L 22.4107744107744 24.4107744107744  C 22.0022446689113 24.8035914702581  21.5061728395062 25  20.9225589225589 25  C 20.3389450056117 25  19.8428731762065 24.8035914702581  19.4343434343434 24.4107744107744  L 13 18.2239057239057  L 6.56565656565657 24.4107744107744  C 6.15712682379349 24.8035914702581  5.66105499438833 25  5.07744107744108 25  C 4.49382716049383 25  3.99775533108867 24.8035914702581  3.58922558922559 24.4107744107744  L 0.612794612794613 21.5488215488215  C 0.204264870931538 21.1560044893378  0 20.679012345679  0 20.1178451178451  C 0 19.5566778900112  0.204264870931538 19.0796857463524  0.612794612794613 18.6868686868687  L 7.04713804713805 12.5  L 0.612794612794613 6.31313131313131  C 0.204264870931538 5.92031425364759  0 5.44332210998878  0 4.88215488215488  C 0 4.32098765432099  0.204264870931538 3.84399551066217  0.612794612794613 3.45117845117845  L 3.58922558922559 0.589225589225589  C 3.99775533108867 0.196408529741862  4.49382716049383 0  5.07744107744108 0  C 5.66105499438833 0  6.15712682379349 0.196408529741862  6.56565656565657 0.589225589225589  L 13 6.77609427609428  L 19.4343434343434 0.589225589225589  C 19.8428731762065 0.196408529741862  20.3389450056117 0  20.9225589225589 0  C 21.5061728395062 0  22.0022446689113 0.196408529741862  22.4107744107744 0.589225589225589  L 25.3872053872054 3.45117845117845  C 25.7957351290685 3.84399551066217  26 4.32098765432099  26 4.88215488215488  C 26 5.44332210998878  25.7957351290685 5.92031425364759  25.3872053872054 6.31313131313131  L 18.952861952862 12.5  L 25.3872053872054 18.6868686868687  Z " fill-rule="nonzero" fill="#000000" stroke="none" transform="matrix(1 0 0 1 950 31 )" />
  </g>
</svg>