<?xml version="1.0" encoding="utf-8"?>
<svg version="1.1" xmlns:xlink="http://www.w3.org/1999/xlink" width="25px" height="24px" xmlns="http://www.w3.org/2000/svg">
  <g transform="matrix(1 0 0 1 -839 -796 )">
    <path d="M 20.2947443181818 11.0625  C 20.4012784090909 11.1647727272727  20.4545454545455 11.2954545454545  20.4545454545455 11.4545454545455  L 20.4545454545455 12.5454545454545  C 20.4545454545455 12.7045454545455  20.4012784090909 12.8352272727273  20.2947443181818 12.9375  C 20.1882102272727 13.0397727272727  20.0520833333333 13.0909090909091  19.8863636363636 13.0909090909091  L 13.6363636363636 13.0909090909091  L 13.6363636363636 19.0909090909091  C 13.6363636363636 19.25  13.5830965909091 19.3806818181818  13.4765625 19.4829545454545  C 13.3700284090909 19.5852272727273  13.2339015151515 19.6363636363636  13.0681818181818 19.6363636363636  L 11.9318181818182 19.6363636363636  C 11.7660984848485 19.6363636363636  11.6299715909091 19.5852272727273  11.5234375 19.4829545454545  C 11.4169034090909 19.3806818181818  11.3636363636364 19.25  11.3636363636364 19.0909090909091  L 11.3636363636364 13.0909090909091  L 5.11363636363636 13.0909090909091  C 4.94791666666667 13.0909090909091  4.81178977272727 13.0397727272727  4.70525568181818 12.9375  C 4.59872159090909 12.8352272727273  4.54545454545455 12.7045454545455  4.54545454545455 12.5454545454545  L 4.54545454545455 11.4545454545455  C 4.54545454545455 11.2954545454545  4.59872159090909 11.1647727272727  4.70525568181818 11.0625  C 4.81178977272727 10.9602272727273  4.94791666666667 10.9090909090909  5.11363636363636 10.9090909090909  L 11.3636363636364 10.9090909090909  L 11.3636363636364 4.90909090909091  C 11.3636363636364 4.75  11.4169034090909 4.61931818181818  11.5234375 4.51704545454546  C 11.6299715909091 4.41477272727273  11.7660984848485 4.36363636363636  11.9318181818182 4.36363636363636  L 13.0681818181818 4.36363636363636  C 13.2339015151515 4.36363636363636  13.3700284090909 4.41477272727273  13.4765625 4.51704545454546  C 13.5830965909091 4.61931818181818  13.6363636363636 4.75  13.6363636363636 4.90909090909091  L 13.6363636363636 10.9090909090909  L 19.8863636363636 10.9090909090909  C 20.0520833333333 10.9090909090909  20.1882102272727 10.9602272727273  20.2947443181818 11.0625  Z M 21.8927556818182 21.0170454545455  C 22.4491003787879 20.4829545454545  22.7272727272727 19.8409090909091  22.7272727272727 19.0909090909091  L 22.7272727272727 4.90909090909091  C 22.7272727272727 4.15909090909091  22.4491003787879 3.51704545454545  21.8927556818182 2.98295454545455  C 21.3364109848485 2.44886363636363  20.6676136363636 2.18181818181818  19.8863636363636 2.18181818181818  L 5.11363636363636 2.18181818181818  C 4.33238636363636 2.18181818181818  3.66358901515152 2.44886363636363  3.10724431818182 2.98295454545455  C 2.55089962121212 3.51704545454545  2.27272727272727 4.15909090909091  2.27272727272727 4.90909090909091  L 2.27272727272727 19.0909090909091  C 2.27272727272727 19.8409090909091  2.55089962121212 20.4829545454545  3.10724431818182 21.0170454545455  C 3.66358901515152 21.5511363636364  4.33238636363636 21.8181818181818  5.11363636363636 21.8181818181818  L 19.8863636363636 21.8181818181818  C 20.6676136363636 21.8181818181818  21.3364109848485 21.5511363636364  21.8927556818182 21.0170454545455  Z M 23.4996448863636 1.44034090909091  C 24.4998816287879 2.40056818181818  25 3.55681818181818  25 4.90909090909091  L 25 19.0909090909091  C 25 20.4431818181818  24.4998816287879 21.5994318181818  23.4996448863636 22.5596590909091  C 22.4994081439394 23.5198863636364  21.2949810606061 24  19.8863636363636 24  L 5.11363636363636 24  C 3.70501893939394 24  2.50059185606061 23.5198863636364  1.50035511363636 22.5596590909091  C 0.500118371212121 21.5994318181818  0 20.4431818181818  0 19.0909090909091  L 0 4.90909090909091  C 0 3.55681818181818  0.500118371212121 2.40056818181818  1.50035511363636 1.44034090909091  C 2.50059185606061 0.480113636363634  3.70501893939394 0  5.11363636363636 0  L 19.8863636363636 0  C 21.2949810606061 0  22.4994081439394 0.480113636363634  23.4996448863636 1.44034090909091  Z " fill-rule="nonzero" fill="#000000" stroke="none" transform="matrix(1 0 0 1 839 796 )" />
  </g>
</svg>