<?xml version="1.0" encoding="utf-8"?>
<svg version="1.1" xmlns:xlink="http://www.w3.org/1999/xlink" width="11px" height="6px" xmlns="http://www.w3.org/2000/svg">
  <g transform="matrix(1 0 0 1 -876 -1595 )">
    <path d="M 10.7958984375 4.86458333333333  C 10.9319661458333 4.99652777777778  11 5.15277777777778  11 5.33333333333333  C 11 5.51388888888889  10.9319661458333 5.67013888888889  10.7958984375 5.80208333333333  C 10.6598307291667 5.93402777777778  10.4986979166667 6  10.3125 6  L 0.6875 6  C 0.501302083333333 6  0.340169270833333 5.93402777777778  0.2041015625 5.80208333333333  C 0.0680338541666667 5.67013888888889  0 5.51388888888889  0 5.33333333333333  C 0 5.15277777777778  0.0680338541666667 4.99652777777778  0.2041015625 4.86458333333333  L 5.0166015625 0.197916666666667  C 5.15266927083333 0.0659722222222214  5.31380208333333 0  5.5 0  C 5.68619791666667 0  5.84733072916667 0.0659722222222214  5.9833984375 0.197916666666667  L 10.7958984375 4.86458333333333  Z " fill-rule="nonzero" fill="#169bd5" stroke="none" transform="matrix(1 0 0 1 876 1595 )" />
  </g>
</svg>