<?xml version="1.0" encoding="utf-8"?>
<svg version="1.1" xmlns:xlink="http://www.w3.org/1999/xlink" width="35px" height="23px" xmlns="http://www.w3.org/2000/svg">
  <g transform="matrix(1 0 0 1 -557 -649 )">
    <path d="M 0.87158203125 15.965234375  C 0.29052734375 14.545703125  0 13.0572916666667  0 11.5  C 0 9.94270833333333  0.29052734375 8.454296875  0.87158203125 7.034765625  C 1.45263671875 5.615234375  2.230224609375 4.393359375  3.204345703125 3.369140625  C 4.178466796875 2.344921875  5.340576171875 1.52734375  6.690673828125 0.916406249999999  C 8.040771484375 0.305468750000001  9.45638020833333 0  10.9375 0  L 24.0625 0  C 25.5436197916667 0  26.959228515625 0.305468750000001  28.309326171875 0.916406249999999  C 29.659423828125 1.52734375  30.821533203125 2.344921875  31.795654296875 3.369140625  C 32.769775390625 4.393359375  33.54736328125 5.615234375  34.12841796875 7.034765625  C 34.70947265625 8.454296875  35 9.94270833333333  35 11.5  C 35 13.0572916666667  34.70947265625 14.545703125  34.12841796875 15.965234375  C 33.54736328125 17.384765625  32.769775390625 18.606640625  31.795654296875 19.630859375  C 30.821533203125 20.655078125  29.659423828125 21.47265625  28.309326171875 22.08359375  C 26.959228515625 22.69453125  25.5436197916667 23  24.0625 23  L 10.9375 23  C 9.45638020833333 23  8.040771484375 22.69453125  6.690673828125 22.08359375  C 5.340576171875 21.47265625  4.178466796875 20.655078125  3.204345703125 19.630859375  C 2.230224609375 18.606640625  1.45263671875 17.384765625  0.87158203125 15.965234375  Z M 20.670166015625 19.972265625  C 21.746826171875 20.457421875  22.8776041666667 20.7  24.0625 20.7  C 25.2473958333333 20.7  26.378173828125 20.457421875  27.454833984375 19.972265625  C 28.531494140625 19.487109375  29.462890625 18.83125  30.2490234375 18.0046875  C 31.03515625 17.178125  31.658935546875 16.198828125  32.120361328125 15.066796875  C 32.581787109375 13.934765625  32.8125 12.7458333333333  32.8125 11.5  C 32.8125 10.2541666666667  32.581787109375 9.065234375  32.120361328125 7.933203125  C 31.658935546875 6.801171875  31.03515625 5.821875  30.2490234375 4.9953125  C 29.462890625 4.16875  28.531494140625 3.512890625  27.454833984375 3.027734375  C 26.378173828125 2.542578125  25.2473958333333 2.3  24.0625 2.3  C 22.8776041666667 2.3  21.746826171875 2.542578125  20.670166015625 3.027734375  C 19.593505859375 3.512890625  18.662109375 4.16875  17.8759765625 4.9953125  C 17.08984375 5.821875  16.466064453125 6.801171875  16.004638671875 7.933203125  C 15.543212890625 9.065234375  15.3125 10.2541666666667  15.3125 11.5  C 15.3125 12.7458333333333  15.543212890625 13.934765625  16.004638671875 15.066796875  C 16.466064453125 16.198828125  17.08984375 17.178125  17.8759765625 18.0046875  C 18.662109375 18.83125  19.593505859375 19.487109375  20.670166015625 19.972265625  Z " fill-rule="nonzero" fill="#000000" stroke="none" transform="matrix(1 0 0 1 557 649 )" />
  </g>
</svg>