<?xml version="1.0" encoding="utf-8"?>
<svg version="1.1" xmlns:xlink="http://www.w3.org/1999/xlink" width="14px" height="14px" xmlns="http://www.w3.org/2000/svg">
  <g transform="matrix(1 0 0 1 -558 -792 )">
    <path d="M 565 792  C 568.92 792  572 795.08  572 799  C 572 802.92  568.92 806  565 806  C 561.08 806  558 802.92  558 799  C 558 795.08  561.08 792  565 792  Z " fill-rule="nonzero" fill="#ffffff" stroke="none" fill-opacity="0" />
    <path d="M 565 792.5  C 568.64 792.5  571.5 795.36  571.5 799  C 571.5 802.64  568.64 805.5  565 805.5  C 561.36 805.5  558.5 802.64  558.5 799  C 558.5 795.36  561.36 792.5  565 792.5  Z " stroke-width="1" stroke="#d9d9d9" fill="none" />
  </g>
</svg>