<?xml version="1.0" encoding="utf-8"?>
<svg version="1.1" xmlns:xlink="http://www.w3.org/1999/xlink" width="60px" height="32px" xmlns="http://www.w3.org/2000/svg">
  <g transform="matrix(1 0 0 1 -821 -891 )">
    <path d="M 822 895  A 3 3 0 0 1 825 892 L 877 892  A 3 3 0 0 1 880 895 L 880 919  A 3 3 0 0 1 877 922 L 825 922  A 3 3 0 0 1 822 919 L 822 895  Z " fill-rule="nonzero" fill="#ffffff" stroke="none" />
    <path d="M 821.5 895  A 3.5 3.5 0 0 1 825 891.5 L 877 891.5  A 3.5 3.5 0 0 1 880.5 895 L 880.5 919  A 3.5 3.5 0 0 1 877 922.5 L 825 922.5  A 3.5 3.5 0 0 1 821.5 919 L 821.5 895  Z " stroke-width="1" stroke-dasharray="3,1" stroke="#d9d9d9" fill="none" stroke-dashoffset="0.5" />
  </g>
</svg>