<?xml version="1.0" encoding="utf-8"?>
<svg version="1.1" xmlns:xlink="http://www.w3.org/1999/xlink" width="24px" height="20px" xmlns="http://www.w3.org/2000/svg">
  <g transform="matrix(1 0 0 1 -1121 -1465 )">
    <path d="M 15.875 11.7045454545455  C 15.9583333333333 11.5909090909091  16 11.4772727272727  16 11.3636363636364  C 16 11.2310606060606  15.9625 11.1221590909091  15.8875 11.0369318181818  C 15.8125 10.9517045454545  15.7166666666667 10.9090909090909  15.6 10.9090909090909  L 12.8 10.9090909090909  L 12.8 5.90909090909091  C 12.8 5.78598484848485  12.7604166666667 5.67945075757576  12.68125 5.58948863636363  C 12.6020833333333 5.49952651515151  12.5083333333333 5.45454545454545  12.4 5.45454545454545  L 10 5.45454545454545  C 9.89166666666667 5.45454545454545  9.79791666666667 5.49952651515151  9.71875 5.58948863636363  C 9.63958333333333 5.67945075757576  9.6 5.78598484848485  9.6 5.90909090909091  L 9.6 10.9090909090909  L 6.8 10.9090909090909  C 6.69166666666667 10.9090909090909  6.59791666666667 10.954071969697  6.51875 11.0440340909091  C 6.43958333333333 11.1339962121212  6.4 11.2405303030303  6.4 11.3636363636364  C 6.4 11.4962121212121  6.4375 11.6051136363636  6.5125 11.6903409090909  L 10.9125 16.6903409090909  C 10.9875 16.7755681818182  11.0833333333333 16.8181818181818  11.2 16.8181818181818  C 11.3166666666667 16.8181818181818  11.4125 16.7755681818182  11.4875 16.6903409090909  L 15.875 11.7045454545455  Z M 22.95625 11.1576704545455  C 23.6520833333333 12.1472537878788  24 13.2765151515151  24 14.5454545454545  C 24 16.0511363636364  23.53125 17.3366477272727  22.59375 18.4019886363636  C 21.65625 19.4673295454545  20.525 20  19.2 20  L 5.6 20  C 4.05833333333333 20  2.73958333333333 19.3773674242424  1.64375 18.1321022727273  C 0.547916666666667 16.8868371212121  0 15.3882575757576  0 13.6363636363636  C 0 12.405303030303  0.291666666666667 11.2689393939394  0.875 10.2272727272727  C 1.45833333333333 9.18560606060606  2.24166666666667 8.40435606060606  3.225 7.88352272727273  C 3.20833333333333 7.59943181818182  3.2 7.39583333333333  3.2 7.27272727272727  C 3.2 5.26515151515151  3.825 3.55113636363636  5.075 2.13068181818182  C 6.325 0.710227272727273  7.83333333333333 0  9.6 0  C 10.9 0  12.0895833333333 0.411931818181819  13.16875 1.23579545454545  C 14.2479166666667 2.05965909090909  15.0333333333333 3.15340909090909  15.525 4.51704545454545  C 16.1166666666667 3.92992424242424  16.8083333333333 3.63636363636364  17.6 3.63636363636364  C 18.4833333333333 3.63636363636364  19.2375 3.99147727272727  19.8625 4.70170454545455  C 20.4875 5.41193181818182  20.8 6.26893939393939  20.8 7.27272727272727  C 20.8 7.99242424242424  20.6291666666667 8.64583333333333  20.2875 9.23295454545455  C 21.3708333333333 9.52651515151515  22.2604166666667 10.1680871212121  22.95625 11.1576704545455  Z " fill-rule="nonzero" fill="#1890ff" stroke="none" transform="matrix(1 0 0 1 1121 1465 )" />
  </g>
</svg>