<?xml version="1.0" encoding="utf-8"?>
<svg version="1.1" xmlns:xlink="http://www.w3.org/1999/xlink" width="17px" height="16px" xmlns="http://www.w3.org/2000/svg">
  <g transform="matrix(1 0 0 1 -391 -1653 )">
    <path d="M 15.6955915178571 14.7723214285714  C 15.7556733630952 14.7157738095238  15.7857142857143 14.6488095238095  15.7857142857143 14.5714285714286  L 15.7857142857143 4.85714285714286  C 15.7857142857143 4.7797619047619  15.7556733630952 4.71279761904762  15.6955915178571 4.65625  C 15.635509672619 4.59970238095238  15.5643601190476 4.57142857142857  15.4821428571429 4.57142857142857  L 5.16071428571429 4.57142857142857  C 5.07849702380952 4.57142857142857  5.0073474702381 4.59970238095238  4.947265625 4.65625  C 4.88718377976191 4.71279761904762  4.85714285714286 4.7797619047619  4.85714285714286 4.85714285714286  L 4.85714285714286 14.5714285714286  C 4.85714285714286 14.6488095238095  4.88718377976191 14.7157738095238  4.947265625 14.7723214285714  C 5.0073474702381 14.828869047619  5.07849702380952 14.8571428571429  5.16071428571429 14.8571428571429  L 15.4821428571429 14.8571428571429  C 15.5643601190476 14.8571428571429  15.635509672619 14.828869047619  15.6955915178571 14.7723214285714  Z M 16.5541294642857 3.84821428571429  C 16.8513764880952 4.12797619047619  17 4.46428571428571  17 4.85714285714286  L 17 14.5714285714286  C 17 14.9642857142857  16.8513764880952 15.3005952380952  16.5541294642857 15.5803571428571  C 16.2568824404762 15.860119047619  15.8995535714286 16  15.4821428571429 16  L 5.16071428571429 16  C 4.74330357142857 16  4.38597470238095 15.860119047619  4.08872767857143 15.5803571428571  C 3.7914806547619 15.3005952380952  3.64285714285714 14.9642857142857  3.64285714285714 14.5714285714286  L 3.64285714285714 4.85714285714286  C 3.64285714285714 4.46428571428571  3.7914806547619 4.12797619047619  4.08872767857143 3.84821428571429  C 4.38597470238095 3.56845238095238  4.74330357142857 3.42857142857143  5.16071428571429 3.42857142857143  L 15.4821428571429 3.42857142857143  C 15.8995535714286 3.42857142857143  16.2568824404762 3.56845238095238  16.5541294642857 3.84821428571429  Z M 12.9112723214286 0.419642857142858  C 13.2085193452381 0.699404761904761  13.3571428571429 1.03571428571429  13.3571428571429 1.42857142857143  L 13.3571428571429 2.85714285714286  L 12.1428571428571 2.85714285714286  L 12.1428571428571 1.42857142857143  C 12.1428571428571 1.35119047619048  12.1128162202381 1.28422619047619  12.052734375 1.22767857142857  C 11.9926525297619 1.17113095238095  11.9215029761905 1.14285714285714  11.8392857142857 1.14285714285714  L 1.51785714285714 1.14285714285714  C 1.43563988095238 1.14285714285714  1.36449032738095 1.17113095238095  1.30440848214286 1.22767857142857  C 1.24432663690476 1.28422619047619  1.21428571428571 1.35119047619048  1.21428571428571 1.42857142857143  L 1.21428571428571 11.1428571428571  C 1.21428571428571 11.2202380952381  1.24432663690476 11.2872023809524  1.30440848214286 11.34375  C 1.36449032738095 11.4002976190476  1.43563988095238 11.4285714285714  1.51785714285714 11.4285714285714  L 3.03571428571429 11.4285714285714  L 3.03571428571429 12.5714285714286  L 1.51785714285714 12.5714285714286  C 1.10044642857143 12.5714285714286  0.74311755952381 12.4315476190476  0.445870535714286 12.1517857142857  C 0.148623511904762 11.8720238095238  0 11.5357142857143  0 11.1428571428571  L 0 1.42857142857143  C 0 1.03571428571429  0.148623511904762 0.699404761904761  0.445870535714286 0.419642857142858  C 0.74311755952381 0.139880952380953  1.10044642857143 0  1.51785714285714 0  L 11.8392857142857 0  C 12.2566964285714 0  12.614025297619 0.139880952380953  12.9112723214286 0.419642857142858  Z " fill-rule="nonzero" fill="#1890ff" stroke="none" transform="matrix(1 0 0 1 391 1653 )" />
  </g>
</svg>