<?xml version="1.0" encoding="utf-8"?>
<svg version="1.1" xmlns:xlink="http://www.w3.org/1999/xlink" width="31px" height="31px" xmlns="http://www.w3.org/2000/svg">
  <g transform="matrix(1 0 0 1 -642 -2022 )">
    <path d="M 30.2693602693603 23.1717171717172  C 30.7564534231201 23.658810325477  31 24.2502805836139  31 24.9461279461279  C 31 25.641975308642  30.7564534231201 26.2334455667789  30.2693602693603 26.7205387205387  L 26.7205387205387 30.2693602693603  C 26.2334455667789 30.7564534231201  25.641975308642 31  24.9461279461279 31  C 24.2502805836139 31  23.658810325477 30.7564534231201  23.1717171717172 30.2693602693603  L 15.5 22.5976430976431  L 7.82828282828283 30.2693602693603  C 7.34118967452301 30.7564534231201  6.74971941638608 31  6.05387205387205 31  C 5.35802469135803 31  4.7665544332211 30.7564534231201  4.27946127946128 30.2693602693603  L 0.730639730639731 26.7205387205387  C 0.24354657687991 26.2334455667789  0 25.641975308642  0 24.9461279461279  C 0 24.2502805836139  0.24354657687991 23.658810325477  0.730639730639731 23.1717171717172  L 8.4023569023569 15.5  L 0.730639730639731 7.82828282828283  C 0.24354657687991 7.34118967452301  0 6.74971941638608  0 6.05387205387205  C 0 5.35802469135802  0.24354657687991 4.7665544332211  0.730639730639731 4.27946127946128  L 4.27946127946128 0.730639730639731  C 4.7665544332211 0.243546576879909  5.35802469135803 0  6.05387205387205 0  C 6.74971941638608 0  7.34118967452301 0.243546576879909  7.82828282828283 0.730639730639731  L 15.5 8.4023569023569  L 23.1717171717172 0.730639730639731  C 23.658810325477 0.243546576879909  24.2502805836139 0  24.9461279461279 0  C 25.641975308642 0  26.2334455667789 0.243546576879909  26.7205387205387 0.730639730639731  L 30.2693602693603 4.27946127946128  C 30.7564534231201 4.7665544332211  31 5.35802469135802  31 6.05387205387205  C 31 6.74971941638608  30.7564534231201 7.34118967452301  30.2693602693603 7.82828282828283  L 22.5976430976431 15.5  L 30.2693602693603 23.1717171717172  Z " fill-rule="nonzero" fill="#000000" stroke="none" transform="matrix(1 0 0 1 642 2022 )" />
  </g>
</svg>