<?xml version="1.0" encoding="utf-8"?>
<svg version="1.1" xmlns:xlink="http://www.w3.org/1999/xlink" width="31px" height="32px" xmlns="http://www.w3.org/2000/svg">
  <g transform="matrix(1 0 0 1 -626 -1083 )">
    <path d="M 30.2693602693603 23.9191919191919  C 30.7564534231201 24.4219977553311  31 25.0325476992144  31 25.7508417508418  C 31 26.4691358024691  30.7564534231201 27.0796857463524  30.2693602693603 27.5824915824916  L 26.7205387205387 31.2457912457912  C 26.2334455667789 31.7485970819304  25.641975308642 32  24.9461279461279 32  C 24.2502805836139 32  23.658810325477 31.7485970819304  23.1717171717172 31.2457912457912  L 15.5 23.3265993265993  L 7.82828282828283 31.2457912457912  C 7.34118967452301 31.7485970819304  6.74971941638608 32  6.05387205387205 32  C 5.35802469135803 32  4.7665544332211 31.7485970819304  4.27946127946128 31.2457912457912  L 0.730639730639731 27.5824915824916  C 0.24354657687991 27.0796857463524  0 26.4691358024691  0 25.7508417508418  C 0 25.0325476992144  0.24354657687991 24.4219977553311  0.730639730639731 23.9191919191919  L 8.4023569023569 16  L 0.730639730639731 8.08080808080808  C 0.24354657687991 7.57800224466891  0 6.96745230078563  0 6.24915824915825  C 0 5.53086419753086  0.24354657687991 4.92031425364758  0.730639730639731 4.41750841750842  L 4.27946127946128 0.754208754208754  C 4.7665544332211 0.251402918069584  5.35802469135803 0  6.05387205387205 0  C 6.74971941638608 0  7.34118967452301 0.251402918069584  7.82828282828283 0.754208754208754  L 15.5 8.67340067340067  L 23.1717171717172 0.754208754208754  C 23.658810325477 0.251402918069584  24.2502805836139 0  24.9461279461279 0  C 25.641975308642 0  26.2334455667789 0.251402918069584  26.7205387205387 0.754208754208754  L 30.2693602693603 4.41750841750842  C 30.7564534231201 4.92031425364758  31 5.53086419753086  31 6.24915824915825  C 31 6.96745230078563  30.7564534231201 7.57800224466891  30.2693602693603 8.08080808080808  L 22.5976430976431 16  L 30.2693602693603 23.9191919191919  Z " fill-rule="nonzero" fill="#000000" stroke="none" transform="matrix(1 0 0 1 626 1083 )" />
  </g>
</svg>