<?xml version="1.0" encoding="utf-8"?>
<svg version="1.1" xmlns:xlink="http://www.w3.org/1999/xlink" width="10px" height="24px" preserveAspectRatio="xMidYMin meet" viewBox="813 1781  8 24" xmlns="http://www.w3.org/2000/svg">
  <path d="M 1321 2444  L 1321 1805  A 5 5 0 0 0 1316 1800 L 822 1800  A 5 5 0 0 1 817 1795 L 817 1783  " stroke-width="2" stroke="#d9001b" fill="none" />
  <path d="M 812.707106781187 1788.10710678119  L 817 1783.81421356237  L 821.292893218813 1788.10710678119  L 822.707106781187 1786.69289321881  L 817.707106781187 1781.69289321881  L 817 1780.98578643763  L 816.292893218813 1781.69289321881  L 811.292893218813 1786.69289321881  L 812.707106781187 1788.10710678119  Z M 812.707106781187 1794.50710678119  L 817 1790.21421356237  L 821.292893218813 1794.50710678119  L 822.707106781187 1793.09289321881  L 817.707106781187 1788.09289321881  L 817 1787.38578643763  L 816.292893218813 1788.09289321881  L 811.292893218813 1793.09289321881  L 812.707106781187 1794.50710678119  Z " fill-rule="nonzero" fill="#d9001b" stroke="none" />
</svg>